<mxfile host="Electron" modified="2024-02-08T07:55:02.959Z" agent="5.0 (Windows NT 10.0; Win64; x64) AppleWebKit/537.36 (KHTML, like Gecko) draw.io/20.3.0 Chrome/104.0.5112.114 Electron/20.1.3 Safari/537.36" etag="XMg-F3gELdxGM-fThITO" compressed="false" version="20.3.0" type="device">
  <diagram name="PD001A" id="1CP9VX86ncTdAmcYDIcw">
    <mxGraphModel dx="1016" dy="612" grid="0" gridSize="2" guides="1" tooltips="1" connect="1" arrows="1" fold="1" page="1" pageScale="1" pageWidth="827" pageHeight="1169" math="0" shadow="0">
      <root>
        <mxCell id="22vkG-h5v2N9dKBLQ-ZE-0" />
        <mxCell id="22vkG-h5v2N9dKBLQ-ZE-1" value="Grid" style="" parent="22vkG-h5v2N9dKBLQ-ZE-0" />
        <mxCell id="sn5sNQxoWfRkQCIoUtF5-100" style="vsdxID=1326;edgeStyle=none;startArrow=none;endArrow=none;startSize=5;endSize=5;strokeColor=#7f7f7f;spacingTop=0;spacingBottom=0;spacingLeft=0;spacingRight=0;verticalAlign=middle;html=1;labelBackgroundColor=#ffffff;rounded=0;fillOpacity=80;strokeOpacity=20;" edge="1" parent="22vkG-h5v2N9dKBLQ-ZE-1">
          <mxGeometry relative="1" as="geometry">
            <Array as="points" />
            <mxPoint x="16" y="815" as="sourcePoint" />
            <mxPoint x="820" y="815" as="targetPoint" />
          </mxGeometry>
        </mxCell>
        <mxCell id="sn5sNQxoWfRkQCIoUtF5-101" style="vsdxID=1327;edgeStyle=none;startArrow=none;endArrow=none;startSize=5;endSize=5;strokeColor=#d8d8d8;spacingTop=0;spacingBottom=0;spacingLeft=0;spacingRight=0;verticalAlign=middle;html=1;labelBackgroundColor=#ffffff;rounded=0;fillOpacity=80;strokeOpacity=20;" edge="1" parent="22vkG-h5v2N9dKBLQ-ZE-1">
          <mxGeometry relative="1" as="geometry">
            <Array as="points" />
            <mxPoint x="16" y="831" as="sourcePoint" />
            <mxPoint x="820" y="831" as="targetPoint" />
          </mxGeometry>
        </mxCell>
        <mxCell id="sn5sNQxoWfRkQCIoUtF5-102" style="vsdxID=1328;edgeStyle=none;startArrow=none;endArrow=none;startSize=5;endSize=5;strokeColor=#d8d8d8;spacingTop=0;spacingBottom=0;spacingLeft=0;spacingRight=0;verticalAlign=middle;html=1;labelBackgroundColor=#ffffff;rounded=0;fillOpacity=80;strokeOpacity=20;" edge="1" parent="22vkG-h5v2N9dKBLQ-ZE-1">
          <mxGeometry relative="1" as="geometry">
            <Array as="points" />
            <mxPoint x="16" y="863" as="sourcePoint" />
            <mxPoint x="820" y="863" as="targetPoint" />
          </mxGeometry>
        </mxCell>
        <mxCell id="sn5sNQxoWfRkQCIoUtF5-103" style="vsdxID=1329;edgeStyle=none;startArrow=none;endArrow=none;startSize=5;endSize=5;strokeColor=#d8d8d8;spacingTop=0;spacingBottom=0;spacingLeft=0;spacingRight=0;verticalAlign=middle;html=1;labelBackgroundColor=#ffffff;rounded=0;fillOpacity=80;strokeOpacity=20;" edge="1" parent="22vkG-h5v2N9dKBLQ-ZE-1">
          <mxGeometry relative="1" as="geometry">
            <Array as="points" />
            <mxPoint x="16" y="879" as="sourcePoint" />
            <mxPoint x="820" y="878" as="targetPoint" />
          </mxGeometry>
        </mxCell>
        <mxCell id="sn5sNQxoWfRkQCIoUtF5-104" style="vsdxID=1330;edgeStyle=none;startArrow=none;endArrow=none;startSize=5;endSize=5;strokeColor=#7f7f7f;spacingTop=0;spacingBottom=0;spacingLeft=0;spacingRight=0;verticalAlign=middle;html=1;labelBackgroundColor=#ffffff;rounded=0;fillOpacity=80;strokeOpacity=20;" edge="1" parent="22vkG-h5v2N9dKBLQ-ZE-1">
          <mxGeometry relative="1" as="geometry">
            <Array as="points" />
            <mxPoint x="16" y="895" as="sourcePoint" />
            <mxPoint x="820" y="895" as="targetPoint" />
          </mxGeometry>
        </mxCell>
        <mxCell id="sn5sNQxoWfRkQCIoUtF5-105" style="vsdxID=1331;edgeStyle=none;startArrow=none;endArrow=none;startSize=5;endSize=5;strokeColor=#d8d8d8;spacingTop=0;spacingBottom=0;spacingLeft=0;spacingRight=0;verticalAlign=middle;html=1;labelBackgroundColor=#ffffff;rounded=0;fillOpacity=80;strokeOpacity=20;" edge="1" parent="22vkG-h5v2N9dKBLQ-ZE-1">
          <mxGeometry relative="1" as="geometry">
            <Array as="points" />
            <mxPoint x="16" y="911" as="sourcePoint" />
            <mxPoint x="820" y="911" as="targetPoint" />
          </mxGeometry>
        </mxCell>
        <mxCell id="sn5sNQxoWfRkQCIoUtF5-106" style="vsdxID=1332;edgeStyle=none;startArrow=none;endArrow=none;startSize=5;endSize=5;strokeColor=#d8d8d8;spacingTop=0;spacingBottom=0;spacingLeft=0;spacingRight=0;verticalAlign=middle;html=1;labelBackgroundColor=#ffffff;rounded=0;fillOpacity=80;strokeOpacity=20;" edge="1" parent="22vkG-h5v2N9dKBLQ-ZE-1">
          <mxGeometry relative="1" as="geometry">
            <Array as="points" />
            <mxPoint x="16" y="847" as="sourcePoint" />
            <mxPoint x="820" y="847" as="targetPoint" />
          </mxGeometry>
        </mxCell>
        <mxCell id="sn5sNQxoWfRkQCIoUtF5-107" style="vsdxID=1333;edgeStyle=none;startArrow=none;endArrow=none;startSize=5;endSize=5;strokeColor=#d8d8d8;spacingTop=0;spacingBottom=0;spacingLeft=0;spacingRight=0;verticalAlign=middle;html=1;labelBackgroundColor=#ffffff;rounded=0;fillOpacity=80;strokeOpacity=20;" edge="1" parent="22vkG-h5v2N9dKBLQ-ZE-1">
          <mxGeometry relative="1" as="geometry">
            <Array as="points" />
            <mxPoint x="16" y="927" as="sourcePoint" />
            <mxPoint x="820" y="927" as="targetPoint" />
          </mxGeometry>
        </mxCell>
        <mxCell id="sn5sNQxoWfRkQCIoUtF5-108" style="vsdxID=1334;edgeStyle=none;startArrow=none;endArrow=none;startSize=5;endSize=5;strokeColor=#d8d8d8;spacingTop=0;spacingBottom=0;spacingLeft=0;spacingRight=0;verticalAlign=middle;html=1;labelBackgroundColor=#ffffff;rounded=0;fillOpacity=80;strokeOpacity=20;" edge="1" parent="22vkG-h5v2N9dKBLQ-ZE-1">
          <mxGeometry relative="1" as="geometry">
            <Array as="points" />
            <mxPoint x="16" y="943" as="sourcePoint" />
            <mxPoint x="820" y="943" as="targetPoint" />
          </mxGeometry>
        </mxCell>
        <mxCell id="sn5sNQxoWfRkQCIoUtF5-109" style="vsdxID=1335;edgeStyle=none;startArrow=none;endArrow=none;startSize=5;endSize=5;strokeColor=#d8d8d8;spacingTop=0;spacingBottom=0;spacingLeft=0;spacingRight=0;verticalAlign=middle;html=1;labelBackgroundColor=#ffffff;rounded=0;fillOpacity=80;strokeOpacity=20;" edge="1" parent="22vkG-h5v2N9dKBLQ-ZE-1">
          <mxGeometry relative="1" as="geometry">
            <Array as="points" />
            <mxPoint x="16" y="959" as="sourcePoint" />
            <mxPoint x="820" y="959" as="targetPoint" />
          </mxGeometry>
        </mxCell>
        <mxCell id="sn5sNQxoWfRkQCIoUtF5-110" style="vsdxID=1336;edgeStyle=none;startArrow=none;endArrow=none;startSize=5;endSize=5;strokeColor=#7f7f7f;spacingTop=0;spacingBottom=0;spacingLeft=0;spacingRight=0;verticalAlign=middle;html=1;labelBackgroundColor=#ffffff;rounded=0;fillOpacity=80;strokeOpacity=20;" edge="1" parent="22vkG-h5v2N9dKBLQ-ZE-1">
          <mxGeometry relative="1" as="geometry">
            <Array as="points" />
            <mxPoint x="16" y="975" as="sourcePoint" />
            <mxPoint x="820" y="975" as="targetPoint" />
          </mxGeometry>
        </mxCell>
        <mxCell id="sn5sNQxoWfRkQCIoUtF5-111" style="vsdxID=1337;edgeStyle=none;startArrow=none;endArrow=none;startSize=5;endSize=5;strokeColor=#d8d8d8;spacingTop=0;spacingBottom=0;spacingLeft=0;spacingRight=0;verticalAlign=middle;html=1;labelBackgroundColor=#ffffff;rounded=0;fillOpacity=80;strokeOpacity=20;" edge="1" parent="22vkG-h5v2N9dKBLQ-ZE-1">
          <mxGeometry relative="1" as="geometry">
            <Array as="points" />
            <mxPoint x="16" y="1007" as="sourcePoint" />
            <mxPoint x="820" y="1007" as="targetPoint" />
          </mxGeometry>
        </mxCell>
        <mxCell id="sn5sNQxoWfRkQCIoUtF5-112" style="vsdxID=1338;edgeStyle=none;startArrow=none;endArrow=none;startSize=5;endSize=5;strokeColor=#d8d8d8;spacingTop=0;spacingBottom=0;spacingLeft=0;spacingRight=0;verticalAlign=middle;html=1;labelBackgroundColor=#ffffff;rounded=0;fillOpacity=80;strokeOpacity=20;" edge="1" parent="22vkG-h5v2N9dKBLQ-ZE-1">
          <mxGeometry relative="1" as="geometry">
            <Array as="points" />
            <mxPoint x="16" y="1023.0000000000002" as="sourcePoint" />
            <mxPoint x="820" y="1023.0000000000002" as="targetPoint" />
          </mxGeometry>
        </mxCell>
        <mxCell id="sn5sNQxoWfRkQCIoUtF5-113" style="vsdxID=1339;edgeStyle=none;startArrow=none;endArrow=none;startSize=5;endSize=5;strokeColor=#d8d8d8;spacingTop=0;spacingBottom=0;spacingLeft=0;spacingRight=0;verticalAlign=middle;html=1;labelBackgroundColor=#ffffff;rounded=0;fillOpacity=80;strokeOpacity=20;" edge="1" parent="22vkG-h5v2N9dKBLQ-ZE-1">
          <mxGeometry relative="1" as="geometry">
            <Array as="points" />
            <mxPoint x="16" y="1039" as="sourcePoint" />
            <mxPoint x="820" y="1039" as="targetPoint" />
          </mxGeometry>
        </mxCell>
        <mxCell id="sn5sNQxoWfRkQCIoUtF5-114" style="vsdxID=1340;edgeStyle=none;startArrow=none;endArrow=none;startSize=5;endSize=5;strokeColor=#7f7f7f;spacingTop=0;spacingBottom=0;spacingLeft=0;spacingRight=0;verticalAlign=middle;html=1;labelBackgroundColor=#ffffff;rounded=0;fillOpacity=80;strokeOpacity=20;" edge="1" parent="22vkG-h5v2N9dKBLQ-ZE-1">
          <mxGeometry relative="1" as="geometry">
            <Array as="points" />
            <mxPoint x="16" y="1055" as="sourcePoint" />
            <mxPoint x="820" y="1055" as="targetPoint" />
          </mxGeometry>
        </mxCell>
        <mxCell id="sn5sNQxoWfRkQCIoUtF5-115" style="vsdxID=1341;edgeStyle=none;startArrow=none;endArrow=none;startSize=5;endSize=5;strokeColor=#d8d8d8;spacingTop=0;spacingBottom=0;spacingLeft=0;spacingRight=0;verticalAlign=middle;html=1;labelBackgroundColor=#ffffff;rounded=0;fillOpacity=80;strokeOpacity=20;" edge="1" parent="22vkG-h5v2N9dKBLQ-ZE-1">
          <mxGeometry relative="1" as="geometry">
            <Array as="points" />
            <mxPoint x="16" y="991" as="sourcePoint" />
            <mxPoint x="820" y="991" as="targetPoint" />
          </mxGeometry>
        </mxCell>
        <mxCell id="sn5sNQxoWfRkQCIoUtF5-116" style="vsdxID=1342;edgeStyle=none;startArrow=none;endArrow=none;startSize=5;endSize=5;strokeColor=#d8d8d8;spacingTop=0;spacingBottom=0;spacingLeft=0;spacingRight=0;verticalAlign=middle;html=1;labelBackgroundColor=#ffffff;rounded=0;fillOpacity=80;strokeOpacity=20;" edge="1" parent="22vkG-h5v2N9dKBLQ-ZE-1">
          <mxGeometry relative="1" as="geometry">
            <Array as="points" />
            <mxPoint x="16" y="1071" as="sourcePoint" />
            <mxPoint x="820" y="1071" as="targetPoint" />
          </mxGeometry>
        </mxCell>
        <mxCell id="sn5sNQxoWfRkQCIoUtF5-117" style="vsdxID=1343;edgeStyle=none;startArrow=none;endArrow=none;startSize=5;endSize=5;strokeColor=#d8d8d8;spacingTop=0;spacingBottom=0;spacingLeft=0;spacingRight=0;verticalAlign=middle;html=1;labelBackgroundColor=#ffffff;rounded=0;fillOpacity=80;strokeOpacity=20;" edge="1" parent="22vkG-h5v2N9dKBLQ-ZE-1">
          <mxGeometry relative="1" as="geometry">
            <Array as="points" />
            <mxPoint x="16" y="1087" as="sourcePoint" />
            <mxPoint x="820" y="1087" as="targetPoint" />
          </mxGeometry>
        </mxCell>
        <mxCell id="sn5sNQxoWfRkQCIoUtF5-118" style="vsdxID=1344;edgeStyle=none;startArrow=none;endArrow=none;startSize=5;endSize=5;strokeColor=#d8d8d8;spacingTop=0;spacingBottom=0;spacingLeft=0;spacingRight=0;verticalAlign=middle;html=1;labelBackgroundColor=#ffffff;rounded=0;fillOpacity=80;strokeOpacity=20;" edge="1" parent="22vkG-h5v2N9dKBLQ-ZE-1">
          <mxGeometry relative="1" as="geometry">
            <Array as="points" />
            <mxPoint x="16" y="1103.0000000000002" as="sourcePoint" />
            <mxPoint x="820" y="1103.0000000000002" as="targetPoint" />
          </mxGeometry>
        </mxCell>
        <mxCell id="sn5sNQxoWfRkQCIoUtF5-119" style="vsdxID=1345;edgeStyle=none;startArrow=none;endArrow=none;startSize=5;endSize=5;strokeColor=#d8d8d8;spacingTop=0;spacingBottom=0;spacingLeft=0;spacingRight=0;verticalAlign=middle;html=1;labelBackgroundColor=#ffffff;rounded=0;fillOpacity=80;strokeOpacity=20;" edge="1" parent="22vkG-h5v2N9dKBLQ-ZE-1">
          <mxGeometry relative="1" as="geometry">
            <Array as="points" />
            <mxPoint x="16" y="1119" as="sourcePoint" />
            <mxPoint x="820" y="1119" as="targetPoint" />
          </mxGeometry>
        </mxCell>
        <mxCell id="22vkG-h5v2N9dKBLQ-ZE-5" style="vsdxID=1364;edgeStyle=none;startArrow=none;endArrow=none;startSize=5;endSize=5;strokeColor=#0F0F0F;spacingTop=0;spacingBottom=0;spacingLeft=0;spacingRight=0;verticalAlign=middle;html=1;labelBackgroundColor=#ffffff;rounded=0;fillOpacity=80;strokeOpacity=20;" parent="22vkG-h5v2N9dKBLQ-ZE-1" edge="1">
          <mxGeometry relative="1" as="geometry">
            <Array as="points" />
            <mxPoint x="816" y="16" as="sourcePoint" />
            <mxPoint x="816" y="1158" as="targetPoint" />
          </mxGeometry>
        </mxCell>
        <mxCell id="22vkG-h5v2N9dKBLQ-ZE-24" style="vsdxID=1362;edgeStyle=none;startArrow=none;endArrow=none;startSize=5;endSize=5;strokeColor=#D8D8D8;spacingTop=0;spacingBottom=0;spacingLeft=0;spacingRight=0;verticalAlign=middle;html=1;labelBackgroundColor=#ffffff;rounded=0;fillOpacity=80;strokeOpacity=20;" parent="22vkG-h5v2N9dKBLQ-ZE-1" edge="1">
          <mxGeometry relative="1" as="geometry">
            <Array as="points" />
            <mxPoint x="592" y="16" as="sourcePoint" />
            <mxPoint x="592" y="1158" as="targetPoint" />
          </mxGeometry>
        </mxCell>
        <mxCell id="22vkG-h5v2N9dKBLQ-ZE-25" style="vsdxID=1363;edgeStyle=none;startArrow=none;endArrow=none;startSize=5;endSize=5;strokeColor=#0F0F0F;spacingTop=0;spacingBottom=0;spacingLeft=0;spacingRight=0;verticalAlign=middle;html=1;labelBackgroundColor=#ffffff;rounded=0;fillOpacity=80;strokeOpacity=20;" parent="22vkG-h5v2N9dKBLQ-ZE-1" edge="1">
          <mxGeometry relative="1" as="geometry">
            <Array as="points" />
            <mxPoint x="576" y="16" as="sourcePoint" />
            <mxPoint x="576" y="1158" as="targetPoint" />
          </mxGeometry>
        </mxCell>
        <mxCell id="22vkG-h5v2N9dKBLQ-ZE-26" style="vsdxID=1364;edgeStyle=none;startArrow=none;endArrow=none;startSize=5;endSize=5;strokeColor=#D8D8D8;spacingTop=0;spacingBottom=0;spacingLeft=0;spacingRight=0;verticalAlign=middle;html=1;labelBackgroundColor=#ffffff;rounded=0;fillOpacity=80;strokeOpacity=20;" parent="22vkG-h5v2N9dKBLQ-ZE-1" edge="1">
          <mxGeometry relative="1" as="geometry">
            <Array as="points" />
            <mxPoint x="560" y="16" as="sourcePoint" />
            <mxPoint x="560" y="1158" as="targetPoint" />
          </mxGeometry>
        </mxCell>
        <mxCell id="22vkG-h5v2N9dKBLQ-ZE-27" style="vsdxID=1365;edgeStyle=none;startArrow=none;endArrow=none;startSize=5;endSize=5;strokeColor=#D8D8D8;spacingTop=0;spacingBottom=0;spacingLeft=0;spacingRight=0;verticalAlign=middle;html=1;labelBackgroundColor=#ffffff;rounded=0;fillOpacity=80;strokeOpacity=20;" parent="22vkG-h5v2N9dKBLQ-ZE-1" edge="1">
          <mxGeometry relative="1" as="geometry">
            <Array as="points" />
            <mxPoint x="544" y="16" as="sourcePoint" />
            <mxPoint x="544" y="1158" as="targetPoint" />
          </mxGeometry>
        </mxCell>
        <mxCell id="22vkG-h5v2N9dKBLQ-ZE-28" style="vsdxID=1366;edgeStyle=none;startArrow=none;endArrow=none;startSize=5;endSize=5;strokeColor=#D8D8D8;spacingTop=0;spacingBottom=0;spacingLeft=0;spacingRight=0;verticalAlign=middle;html=1;labelBackgroundColor=#ffffff;rounded=0;fillOpacity=80;strokeOpacity=20;" parent="22vkG-h5v2N9dKBLQ-ZE-1" edge="1">
          <mxGeometry relative="1" as="geometry">
            <Array as="points" />
            <mxPoint x="512" y="16" as="sourcePoint" />
            <mxPoint x="512" y="1158" as="targetPoint" />
          </mxGeometry>
        </mxCell>
        <mxCell id="22vkG-h5v2N9dKBLQ-ZE-29" style="vsdxID=1367;edgeStyle=none;startArrow=none;endArrow=none;startSize=5;endSize=5;strokeColor=#0F0F0F;spacingTop=0;spacingBottom=0;spacingLeft=0;spacingRight=0;verticalAlign=middle;html=1;labelBackgroundColor=#ffffff;rounded=0;fillOpacity=80;strokeOpacity=20;" parent="22vkG-h5v2N9dKBLQ-ZE-1" edge="1">
          <mxGeometry relative="1" as="geometry">
            <Array as="points" />
            <mxPoint x="496" y="16" as="sourcePoint" />
            <mxPoint x="496" y="1158" as="targetPoint" />
          </mxGeometry>
        </mxCell>
        <mxCell id="22vkG-h5v2N9dKBLQ-ZE-30" style="vsdxID=1368;edgeStyle=none;startArrow=none;endArrow=none;startSize=5;endSize=5;strokeColor=#D8D8D8;spacingTop=0;spacingBottom=0;spacingLeft=0;spacingRight=0;verticalAlign=middle;html=1;labelBackgroundColor=#ffffff;rounded=0;fillOpacity=80;strokeOpacity=20;" parent="22vkG-h5v2N9dKBLQ-ZE-1" edge="1">
          <mxGeometry relative="1" as="geometry">
            <Array as="points" />
            <mxPoint x="480" y="16" as="sourcePoint" />
            <mxPoint x="480" y="1158" as="targetPoint" />
          </mxGeometry>
        </mxCell>
        <mxCell id="22vkG-h5v2N9dKBLQ-ZE-31" style="vsdxID=1369;edgeStyle=none;startArrow=none;endArrow=none;startSize=5;endSize=5;strokeColor=#D8D8D8;spacingTop=0;spacingBottom=0;spacingLeft=0;spacingRight=0;verticalAlign=middle;html=1;labelBackgroundColor=#ffffff;rounded=0;fillOpacity=80;strokeOpacity=20;" parent="22vkG-h5v2N9dKBLQ-ZE-1" edge="1">
          <mxGeometry relative="1" as="geometry">
            <Array as="points" />
            <mxPoint x="464" y="16" as="sourcePoint" />
            <mxPoint x="464" y="1158" as="targetPoint" />
          </mxGeometry>
        </mxCell>
        <mxCell id="22vkG-h5v2N9dKBLQ-ZE-32" style="vsdxID=1370;edgeStyle=none;startArrow=none;endArrow=none;startSize=5;endSize=5;strokeColor=#D8D8D8;spacingTop=0;spacingBottom=0;spacingLeft=0;spacingRight=0;verticalAlign=middle;html=1;labelBackgroundColor=#ffffff;rounded=0;fillOpacity=80;strokeOpacity=20;" parent="22vkG-h5v2N9dKBLQ-ZE-1" edge="1">
          <mxGeometry relative="1" as="geometry">
            <Array as="points" />
            <mxPoint x="528" y="16" as="sourcePoint" />
            <mxPoint x="528" y="1158" as="targetPoint" />
          </mxGeometry>
        </mxCell>
        <mxCell id="22vkG-h5v2N9dKBLQ-ZE-33" style="vsdxID=1371;edgeStyle=none;startArrow=none;endArrow=none;startSize=5;endSize=5;strokeColor=#D8D8D8;spacingTop=0;spacingBottom=0;spacingLeft=0;spacingRight=0;verticalAlign=middle;html=1;labelBackgroundColor=#ffffff;rounded=0;fillOpacity=80;strokeOpacity=20;" parent="22vkG-h5v2N9dKBLQ-ZE-1" edge="1">
          <mxGeometry relative="1" as="geometry">
            <Array as="points" />
            <mxPoint x="448" y="16" as="sourcePoint" />
            <mxPoint x="448" y="1158" as="targetPoint" />
          </mxGeometry>
        </mxCell>
        <mxCell id="22vkG-h5v2N9dKBLQ-ZE-34" style="vsdxID=1372;edgeStyle=none;startArrow=none;endArrow=none;startSize=5;endSize=5;strokeColor=#D8D8D8;spacingTop=0;spacingBottom=0;spacingLeft=0;spacingRight=0;verticalAlign=middle;html=1;labelBackgroundColor=#ffffff;rounded=0;fillOpacity=80;strokeOpacity=20;" parent="22vkG-h5v2N9dKBLQ-ZE-1" edge="1">
          <mxGeometry relative="1" as="geometry">
            <Array as="points" />
            <mxPoint x="432" y="16" as="sourcePoint" />
            <mxPoint x="432" y="1158" as="targetPoint" />
          </mxGeometry>
        </mxCell>
        <mxCell id="22vkG-h5v2N9dKBLQ-ZE-35" style="vsdxID=1373;edgeStyle=none;startArrow=none;endArrow=none;startSize=5;endSize=5;strokeColor=#0F0F0F;spacingTop=0;spacingBottom=0;spacingLeft=0;spacingRight=0;verticalAlign=middle;html=1;labelBackgroundColor=#ffffff;rounded=0;fillOpacity=80;strokeOpacity=20;" parent="22vkG-h5v2N9dKBLQ-ZE-1" edge="1">
          <mxGeometry relative="1" as="geometry">
            <Array as="points" />
            <mxPoint x="416" y="16" as="sourcePoint" />
            <mxPoint x="416" y="1158" as="targetPoint" />
          </mxGeometry>
        </mxCell>
        <mxCell id="22vkG-h5v2N9dKBLQ-ZE-36" style="vsdxID=1374;edgeStyle=none;startArrow=none;endArrow=none;startSize=5;endSize=5;strokeColor=#D8D8D8;spacingTop=0;spacingBottom=0;spacingLeft=0;spacingRight=0;verticalAlign=middle;html=1;labelBackgroundColor=#ffffff;rounded=0;fillOpacity=80;strokeOpacity=20;" parent="22vkG-h5v2N9dKBLQ-ZE-1" edge="1">
          <mxGeometry relative="1" as="geometry">
            <Array as="points" />
            <mxPoint x="400" y="16" as="sourcePoint" />
            <mxPoint x="400" y="1158" as="targetPoint" />
          </mxGeometry>
        </mxCell>
        <mxCell id="22vkG-h5v2N9dKBLQ-ZE-37" style="vsdxID=1375;edgeStyle=none;startArrow=none;endArrow=none;startSize=5;endSize=5;strokeColor=#D8D8D8;spacingTop=0;spacingBottom=0;spacingLeft=0;spacingRight=0;verticalAlign=middle;html=1;labelBackgroundColor=#ffffff;rounded=0;fillOpacity=80;strokeOpacity=20;" parent="22vkG-h5v2N9dKBLQ-ZE-1" edge="1">
          <mxGeometry relative="1" as="geometry">
            <Array as="points" />
            <mxPoint x="368" y="16" as="sourcePoint" />
            <mxPoint x="368" y="1158" as="targetPoint" />
          </mxGeometry>
        </mxCell>
        <mxCell id="22vkG-h5v2N9dKBLQ-ZE-38" style="vsdxID=1376;edgeStyle=none;startArrow=none;endArrow=none;startSize=5;endSize=5;strokeColor=#D8D8D8;spacingTop=0;spacingBottom=0;spacingLeft=0;spacingRight=0;verticalAlign=middle;html=1;labelBackgroundColor=#ffffff;rounded=0;fillOpacity=80;strokeOpacity=20;" parent="22vkG-h5v2N9dKBLQ-ZE-1" edge="1">
          <mxGeometry relative="1" as="geometry">
            <Array as="points" />
            <mxPoint x="352" y="16" as="sourcePoint" />
            <mxPoint x="352" y="1158" as="targetPoint" />
          </mxGeometry>
        </mxCell>
        <mxCell id="22vkG-h5v2N9dKBLQ-ZE-39" style="vsdxID=1377;edgeStyle=none;startArrow=none;endArrow=none;startSize=5;endSize=5;strokeColor=#0F0F0F;spacingTop=0;spacingBottom=0;spacingLeft=0;spacingRight=0;verticalAlign=middle;html=1;labelBackgroundColor=#ffffff;rounded=0;fillOpacity=80;strokeOpacity=20;" parent="22vkG-h5v2N9dKBLQ-ZE-1" edge="1">
          <mxGeometry relative="1" as="geometry">
            <Array as="points" />
            <mxPoint x="336" y="16" as="sourcePoint" />
            <mxPoint x="336" y="1158" as="targetPoint" />
          </mxGeometry>
        </mxCell>
        <mxCell id="22vkG-h5v2N9dKBLQ-ZE-40" style="vsdxID=1378;edgeStyle=none;startArrow=none;endArrow=none;startSize=5;endSize=5;strokeColor=#D8D8D8;spacingTop=0;spacingBottom=0;spacingLeft=0;spacingRight=0;verticalAlign=middle;html=1;labelBackgroundColor=#ffffff;rounded=0;fillOpacity=80;strokeOpacity=20;" parent="22vkG-h5v2N9dKBLQ-ZE-1" edge="1">
          <mxGeometry relative="1" as="geometry">
            <Array as="points" />
            <mxPoint x="320" y="16" as="sourcePoint" />
            <mxPoint x="320" y="1158" as="targetPoint" />
          </mxGeometry>
        </mxCell>
        <mxCell id="22vkG-h5v2N9dKBLQ-ZE-41" style="vsdxID=1379;edgeStyle=none;startArrow=none;endArrow=none;startSize=5;endSize=5;strokeColor=#D8D8D8;spacingTop=0;spacingBottom=0;spacingLeft=0;spacingRight=0;verticalAlign=middle;html=1;labelBackgroundColor=#ffffff;rounded=0;fillOpacity=80;strokeOpacity=20;" parent="22vkG-h5v2N9dKBLQ-ZE-1" edge="1">
          <mxGeometry relative="1" as="geometry">
            <Array as="points" />
            <mxPoint x="384" y="16" as="sourcePoint" />
            <mxPoint x="384" y="1158" as="targetPoint" />
          </mxGeometry>
        </mxCell>
        <mxCell id="22vkG-h5v2N9dKBLQ-ZE-42" style="vsdxID=1380;edgeStyle=none;startArrow=none;endArrow=none;startSize=5;endSize=5;strokeColor=#D8D8D8;spacingTop=0;spacingBottom=0;spacingLeft=0;spacingRight=0;verticalAlign=middle;html=1;labelBackgroundColor=#ffffff;rounded=0;fillOpacity=80;strokeOpacity=20;" parent="22vkG-h5v2N9dKBLQ-ZE-1" edge="1">
          <mxGeometry relative="1" as="geometry">
            <Array as="points" />
            <mxPoint x="304" y="16" as="sourcePoint" />
            <mxPoint x="304" y="1158" as="targetPoint" />
          </mxGeometry>
        </mxCell>
        <mxCell id="22vkG-h5v2N9dKBLQ-ZE-43" style="vsdxID=1381;edgeStyle=none;startArrow=none;endArrow=none;startSize=5;endSize=5;strokeColor=#D8D8D8;spacingTop=0;spacingBottom=0;spacingLeft=0;spacingRight=0;verticalAlign=middle;html=1;labelBackgroundColor=#ffffff;rounded=0;fillOpacity=80;strokeOpacity=20;" parent="22vkG-h5v2N9dKBLQ-ZE-1" edge="1">
          <mxGeometry relative="1" as="geometry">
            <Array as="points" />
            <mxPoint x="288" y="16" as="sourcePoint" />
            <mxPoint x="288" y="1158" as="targetPoint" />
          </mxGeometry>
        </mxCell>
        <mxCell id="22vkG-h5v2N9dKBLQ-ZE-44" style="vsdxID=1382;edgeStyle=none;startArrow=none;endArrow=none;startSize=5;endSize=5;strokeColor=#D8D8D8;spacingTop=0;spacingBottom=0;spacingLeft=0;spacingRight=0;verticalAlign=middle;html=1;labelBackgroundColor=#ffffff;rounded=0;fillOpacity=80;strokeOpacity=20;" parent="22vkG-h5v2N9dKBLQ-ZE-1" edge="1">
          <mxGeometry relative="1" as="geometry">
            <Array as="points" />
            <mxPoint x="272" y="16" as="sourcePoint" />
            <mxPoint x="272" y="1158" as="targetPoint" />
          </mxGeometry>
        </mxCell>
        <mxCell id="22vkG-h5v2N9dKBLQ-ZE-45" style="vsdxID=1383;edgeStyle=none;startArrow=none;endArrow=none;startSize=5;endSize=5;strokeColor=#0F0F0F;spacingTop=0;spacingBottom=0;spacingLeft=0;spacingRight=0;verticalAlign=middle;html=1;labelBackgroundColor=#ffffff;rounded=0;fillOpacity=80;strokeOpacity=20;" parent="22vkG-h5v2N9dKBLQ-ZE-1" edge="1">
          <mxGeometry relative="1" as="geometry">
            <Array as="points" />
            <mxPoint x="256" y="16" as="sourcePoint" />
            <mxPoint x="256" y="1158" as="targetPoint" />
          </mxGeometry>
        </mxCell>
        <mxCell id="22vkG-h5v2N9dKBLQ-ZE-46" style="vsdxID=1384;edgeStyle=none;startArrow=none;endArrow=none;startSize=5;endSize=5;strokeColor=#D8D8D8;spacingTop=0;spacingBottom=0;spacingLeft=0;spacingRight=0;verticalAlign=middle;html=1;labelBackgroundColor=#ffffff;rounded=0;fillOpacity=80;strokeOpacity=20;" parent="22vkG-h5v2N9dKBLQ-ZE-1" edge="1">
          <mxGeometry relative="1" as="geometry">
            <Array as="points" />
            <mxPoint x="224" y="16" as="sourcePoint" />
            <mxPoint x="224" y="1158" as="targetPoint" />
          </mxGeometry>
        </mxCell>
        <mxCell id="22vkG-h5v2N9dKBLQ-ZE-47" style="vsdxID=1385;edgeStyle=none;startArrow=none;endArrow=none;startSize=5;endSize=5;strokeColor=#D8D8D8;spacingTop=0;spacingBottom=0;spacingLeft=0;spacingRight=0;verticalAlign=middle;html=1;labelBackgroundColor=#ffffff;rounded=0;fillOpacity=80;strokeOpacity=20;" parent="22vkG-h5v2N9dKBLQ-ZE-1" edge="1">
          <mxGeometry relative="1" as="geometry">
            <Array as="points" />
            <mxPoint x="208" y="16" as="sourcePoint" />
            <mxPoint x="208" y="1158" as="targetPoint" />
          </mxGeometry>
        </mxCell>
        <mxCell id="22vkG-h5v2N9dKBLQ-ZE-48" style="vsdxID=1386;edgeStyle=none;startArrow=none;endArrow=none;startSize=5;endSize=5;strokeColor=#D8D8D8;spacingTop=0;spacingBottom=0;spacingLeft=0;spacingRight=0;verticalAlign=middle;html=1;labelBackgroundColor=#ffffff;rounded=0;fillOpacity=80;strokeOpacity=20;" parent="22vkG-h5v2N9dKBLQ-ZE-1" edge="1">
          <mxGeometry relative="1" as="geometry">
            <Array as="points" />
            <mxPoint x="192" y="16" as="sourcePoint" />
            <mxPoint x="192" y="1158" as="targetPoint" />
          </mxGeometry>
        </mxCell>
        <mxCell id="22vkG-h5v2N9dKBLQ-ZE-49" style="vsdxID=1387;edgeStyle=none;startArrow=none;endArrow=none;startSize=5;endSize=5;strokeColor=#0F0F0F;spacingTop=0;spacingBottom=0;spacingLeft=0;spacingRight=0;verticalAlign=middle;html=1;labelBackgroundColor=#ffffff;rounded=0;fillOpacity=80;strokeOpacity=20;" parent="22vkG-h5v2N9dKBLQ-ZE-1" edge="1">
          <mxGeometry relative="1" as="geometry">
            <Array as="points" />
            <mxPoint x="176" y="16" as="sourcePoint" />
            <mxPoint x="176" y="1158" as="targetPoint" />
          </mxGeometry>
        </mxCell>
        <mxCell id="22vkG-h5v2N9dKBLQ-ZE-50" style="vsdxID=1388;edgeStyle=none;startArrow=none;endArrow=none;startSize=5;endSize=5;strokeColor=#D8D8D8;spacingTop=0;spacingBottom=0;spacingLeft=0;spacingRight=0;verticalAlign=middle;html=1;labelBackgroundColor=#ffffff;rounded=0;fillOpacity=80;strokeOpacity=20;" parent="22vkG-h5v2N9dKBLQ-ZE-1" edge="1">
          <mxGeometry relative="1" as="geometry">
            <Array as="points" />
            <mxPoint x="240" y="16" as="sourcePoint" />
            <mxPoint x="240" y="1158" as="targetPoint" />
          </mxGeometry>
        </mxCell>
        <mxCell id="22vkG-h5v2N9dKBLQ-ZE-51" style="vsdxID=1389;edgeStyle=none;startArrow=none;endArrow=none;startSize=5;endSize=5;strokeColor=#D8D8D8;spacingTop=0;spacingBottom=0;spacingLeft=0;spacingRight=0;verticalAlign=middle;html=1;labelBackgroundColor=#ffffff;rounded=0;fillOpacity=80;strokeOpacity=20;" parent="22vkG-h5v2N9dKBLQ-ZE-1" edge="1">
          <mxGeometry relative="1" as="geometry">
            <Array as="points" />
            <mxPoint x="160" y="16" as="sourcePoint" />
            <mxPoint x="160" y="1158" as="targetPoint" />
          </mxGeometry>
        </mxCell>
        <mxCell id="22vkG-h5v2N9dKBLQ-ZE-52" style="vsdxID=1390;edgeStyle=none;startArrow=none;endArrow=none;startSize=5;endSize=5;strokeColor=#D8D8D8;spacingTop=0;spacingBottom=0;spacingLeft=0;spacingRight=0;verticalAlign=middle;html=1;labelBackgroundColor=#ffffff;rounded=0;fillOpacity=80;strokeOpacity=20;" parent="22vkG-h5v2N9dKBLQ-ZE-1" edge="1">
          <mxGeometry relative="1" as="geometry">
            <Array as="points" />
            <mxPoint x="144" y="16" as="sourcePoint" />
            <mxPoint x="144" y="1158" as="targetPoint" />
          </mxGeometry>
        </mxCell>
        <mxCell id="22vkG-h5v2N9dKBLQ-ZE-53" style="vsdxID=1391;edgeStyle=none;startArrow=none;endArrow=none;startSize=5;endSize=5;strokeColor=#D8D8D8;spacingTop=0;spacingBottom=0;spacingLeft=0;spacingRight=0;verticalAlign=middle;html=1;labelBackgroundColor=#ffffff;rounded=0;fillOpacity=80;strokeOpacity=20;" parent="22vkG-h5v2N9dKBLQ-ZE-1" edge="1">
          <mxGeometry relative="1" as="geometry">
            <Array as="points" />
            <mxPoint x="128" y="16" as="sourcePoint" />
            <mxPoint x="128" y="1158" as="targetPoint" />
          </mxGeometry>
        </mxCell>
        <mxCell id="22vkG-h5v2N9dKBLQ-ZE-54" style="vsdxID=1392;edgeStyle=none;startArrow=none;endArrow=none;startSize=5;endSize=5;strokeColor=#D8D8D8;spacingTop=0;spacingBottom=0;spacingLeft=0;spacingRight=0;verticalAlign=middle;html=1;labelBackgroundColor=#ffffff;rounded=0;fillOpacity=80;strokeOpacity=20;" parent="22vkG-h5v2N9dKBLQ-ZE-1" edge="1">
          <mxGeometry relative="1" as="geometry">
            <mxPoint x="-1" as="offset" />
            <Array as="points" />
            <mxPoint x="64" y="16" as="sourcePoint" />
            <mxPoint x="64" y="1158" as="targetPoint" />
          </mxGeometry>
        </mxCell>
        <mxCell id="22vkG-h5v2N9dKBLQ-ZE-55" style="vsdxID=1393;edgeStyle=none;startArrow=none;endArrow=none;startSize=5;endSize=5;strokeColor=#D8D8D8;spacingTop=0;spacingBottom=0;spacingLeft=0;spacingRight=0;verticalAlign=middle;html=1;labelBackgroundColor=#ffffff;rounded=0;fillOpacity=80;strokeOpacity=20;" parent="22vkG-h5v2N9dKBLQ-ZE-1" edge="1">
          <mxGeometry relative="1" as="geometry">
            <Array as="points" />
            <mxPoint x="80" y="16" as="sourcePoint" />
            <mxPoint x="80" y="1158" as="targetPoint" />
          </mxGeometry>
        </mxCell>
        <mxCell id="22vkG-h5v2N9dKBLQ-ZE-56" style="vsdxID=1394;edgeStyle=none;startArrow=none;endArrow=none;startSize=5;endSize=5;strokeColor=#D8D8D8;spacingTop=0;spacingBottom=0;spacingLeft=0;spacingRight=0;verticalAlign=middle;html=1;labelBackgroundColor=#ffffff;rounded=0;fillOpacity=80;strokeOpacity=20;" parent="22vkG-h5v2N9dKBLQ-ZE-1" edge="1">
          <mxGeometry relative="1" as="geometry">
            <mxPoint as="offset" />
            <Array as="points" />
            <mxPoint x="32" y="16" as="sourcePoint" />
            <mxPoint x="32" y="1158" as="targetPoint" />
          </mxGeometry>
        </mxCell>
        <mxCell id="22vkG-h5v2N9dKBLQ-ZE-57" style="vsdxID=1395;edgeStyle=none;startArrow=none;endArrow=none;startSize=5;endSize=5;strokeColor=#0F0F0F;spacingTop=0;spacingBottom=0;spacingLeft=0;spacingRight=0;verticalAlign=middle;html=1;labelBackgroundColor=#ffffff;rounded=0;fillOpacity=80;strokeOpacity=20;" parent="22vkG-h5v2N9dKBLQ-ZE-1" edge="1">
          <mxGeometry relative="1" as="geometry">
            <Array as="points" />
            <mxPoint x="96" y="16" as="sourcePoint" />
            <mxPoint x="96" y="1158" as="targetPoint" />
          </mxGeometry>
        </mxCell>
        <mxCell id="22vkG-h5v2N9dKBLQ-ZE-58" style="vsdxID=1396;edgeStyle=none;startArrow=none;endArrow=none;startSize=5;endSize=5;strokeColor=#D8D8D8;spacingTop=0;spacingBottom=0;spacingLeft=0;spacingRight=0;verticalAlign=middle;html=1;labelBackgroundColor=#ffffff;rounded=0;fillOpacity=80;strokeOpacity=20;" parent="22vkG-h5v2N9dKBLQ-ZE-1" edge="1">
          <mxGeometry relative="1" as="geometry">
            <Array as="points" />
            <mxPoint x="640" y="16" as="sourcePoint" />
            <mxPoint x="640" y="1158" as="targetPoint" />
          </mxGeometry>
        </mxCell>
        <mxCell id="22vkG-h5v2N9dKBLQ-ZE-59" style="vsdxID=1397;edgeStyle=none;startArrow=none;endArrow=none;startSize=5;endSize=5;strokeColor=#D8D8D8;spacingTop=0;spacingBottom=0;spacingLeft=0;spacingRight=0;verticalAlign=middle;html=1;labelBackgroundColor=#ffffff;rounded=0;fillOpacity=80;strokeOpacity=20;" parent="22vkG-h5v2N9dKBLQ-ZE-1" edge="1">
          <mxGeometry relative="1" as="geometry">
            <Array as="points" />
            <mxPoint x="624" y="16" as="sourcePoint" />
            <mxPoint x="624" y="1158" as="targetPoint" />
          </mxGeometry>
        </mxCell>
        <mxCell id="22vkG-h5v2N9dKBLQ-ZE-60" style="vsdxID=1398;edgeStyle=none;startArrow=none;endArrow=none;startSize=5;endSize=5;strokeColor=#D8D8D8;spacingTop=0;spacingBottom=0;spacingLeft=0;spacingRight=0;verticalAlign=middle;html=1;labelBackgroundColor=#ffffff;rounded=0;fillOpacity=80;strokeOpacity=20;" parent="22vkG-h5v2N9dKBLQ-ZE-1" edge="1">
          <mxGeometry relative="1" as="geometry">
            <Array as="points" />
            <mxPoint x="608" y="16" as="sourcePoint" />
            <mxPoint x="608" y="1158" as="targetPoint" />
          </mxGeometry>
        </mxCell>
        <mxCell id="22vkG-h5v2N9dKBLQ-ZE-61" style="vsdxID=1399;edgeStyle=none;startArrow=none;endArrow=none;startSize=5;endSize=5;strokeColor=#D8D8D8;spacingTop=0;spacingBottom=0;spacingLeft=0;spacingRight=0;verticalAlign=middle;html=1;labelBackgroundColor=#ffffff;rounded=0;fillOpacity=80;strokeOpacity=20;" parent="22vkG-h5v2N9dKBLQ-ZE-1" edge="1">
          <mxGeometry relative="1" as="geometry">
            <Array as="points" />
            <mxPoint x="112" y="16" as="sourcePoint" />
            <mxPoint x="112" y="1158" as="targetPoint" />
          </mxGeometry>
        </mxCell>
        <mxCell id="22vkG-h5v2N9dKBLQ-ZE-62" style="vsdxID=1403;edgeStyle=none;startArrow=none;endArrow=none;startSize=5;endSize=5;strokeColor=#D8D8D8;spacingTop=0;spacingBottom=0;spacingLeft=0;spacingRight=0;verticalAlign=middle;html=1;labelBackgroundColor=#ffffff;rounded=0;fillOpacity=80;strokeOpacity=20;" parent="22vkG-h5v2N9dKBLQ-ZE-1" edge="1">
          <mxGeometry relative="1" as="geometry">
            <Array as="points" />
            <mxPoint x="48" y="16" as="sourcePoint" />
            <mxPoint x="48" y="1158" as="targetPoint" />
          </mxGeometry>
        </mxCell>
        <mxCell id="22vkG-h5v2N9dKBLQ-ZE-63" style="vsdxID=1362;edgeStyle=none;startArrow=none;endArrow=none;startSize=5;endSize=5;strokeColor=#D8D8D8;spacingTop=0;spacingBottom=0;spacingLeft=0;spacingRight=0;verticalAlign=middle;html=1;labelBackgroundColor=#ffffff;rounded=0;fillOpacity=80;strokeOpacity=20;" parent="22vkG-h5v2N9dKBLQ-ZE-1" edge="1">
          <mxGeometry relative="1" as="geometry">
            <Array as="points" />
            <mxPoint x="784" y="16" as="sourcePoint" />
            <mxPoint x="784" y="1158" as="targetPoint" />
          </mxGeometry>
        </mxCell>
        <mxCell id="22vkG-h5v2N9dKBLQ-ZE-64" style="vsdxID=1363;edgeStyle=none;startArrow=none;endArrow=none;startSize=5;endSize=5;strokeColor=#D8D8D8;spacingTop=0;spacingBottom=0;spacingLeft=0;spacingRight=0;verticalAlign=middle;html=1;labelBackgroundColor=#ffffff;rounded=0;fillOpacity=80;strokeOpacity=20;" parent="22vkG-h5v2N9dKBLQ-ZE-1" edge="1">
          <mxGeometry relative="1" as="geometry">
            <Array as="points" />
            <mxPoint x="768" y="16" as="sourcePoint" />
            <mxPoint x="768" y="1158" as="targetPoint" />
          </mxGeometry>
        </mxCell>
        <mxCell id="22vkG-h5v2N9dKBLQ-ZE-65" style="vsdxID=1364;edgeStyle=none;startArrow=none;endArrow=none;startSize=5;endSize=5;strokeColor=#D8D8D8;spacingTop=0;spacingBottom=0;spacingLeft=0;spacingRight=0;verticalAlign=middle;html=1;labelBackgroundColor=#ffffff;rounded=0;fillOpacity=80;strokeOpacity=20;" parent="22vkG-h5v2N9dKBLQ-ZE-1" edge="1">
          <mxGeometry relative="1" as="geometry">
            <Array as="points" />
            <mxPoint x="752" y="16" as="sourcePoint" />
            <mxPoint x="752" y="1158" as="targetPoint" />
          </mxGeometry>
        </mxCell>
        <mxCell id="22vkG-h5v2N9dKBLQ-ZE-66" style="vsdxID=1365;edgeStyle=none;startArrow=none;endArrow=none;startSize=5;endSize=5;strokeColor=#0F0F0F;spacingTop=0;spacingBottom=0;spacingLeft=0;spacingRight=0;verticalAlign=middle;html=1;labelBackgroundColor=#ffffff;rounded=0;fillOpacity=80;strokeOpacity=20;" parent="22vkG-h5v2N9dKBLQ-ZE-1" edge="1">
          <mxGeometry relative="1" as="geometry">
            <Array as="points" />
            <mxPoint x="736" y="16" as="sourcePoint" />
            <mxPoint x="736" y="1158" as="targetPoint" />
          </mxGeometry>
        </mxCell>
        <mxCell id="22vkG-h5v2N9dKBLQ-ZE-67" style="vsdxID=1366;edgeStyle=none;startArrow=none;endArrow=none;startSize=5;endSize=5;strokeColor=#D8D8D8;spacingTop=0;spacingBottom=0;spacingLeft=0;spacingRight=0;verticalAlign=middle;html=1;labelBackgroundColor=#ffffff;rounded=0;fillOpacity=80;strokeOpacity=20;" parent="22vkG-h5v2N9dKBLQ-ZE-1" edge="1">
          <mxGeometry relative="1" as="geometry">
            <Array as="points" />
            <mxPoint x="704" y="16" as="sourcePoint" />
            <mxPoint x="704" y="1158" as="targetPoint" />
          </mxGeometry>
        </mxCell>
        <mxCell id="22vkG-h5v2N9dKBLQ-ZE-68" style="vsdxID=1367;edgeStyle=none;startArrow=none;endArrow=none;startSize=5;endSize=5;strokeColor=#D8D8D8;spacingTop=0;spacingBottom=0;spacingLeft=0;spacingRight=0;verticalAlign=middle;html=1;labelBackgroundColor=#ffffff;rounded=0;fillOpacity=80;strokeOpacity=20;" parent="22vkG-h5v2N9dKBLQ-ZE-1" edge="1">
          <mxGeometry relative="1" as="geometry">
            <Array as="points" />
            <mxPoint x="688" y="16" as="sourcePoint" />
            <mxPoint x="688" y="1158" as="targetPoint" />
          </mxGeometry>
        </mxCell>
        <mxCell id="22vkG-h5v2N9dKBLQ-ZE-69" style="vsdxID=1368;edgeStyle=none;startArrow=none;endArrow=none;startSize=5;endSize=5;strokeColor=#D8D8D8;spacingTop=0;spacingBottom=0;spacingLeft=0;spacingRight=0;verticalAlign=middle;html=1;labelBackgroundColor=#ffffff;rounded=0;fillOpacity=80;strokeOpacity=20;" parent="22vkG-h5v2N9dKBLQ-ZE-1" edge="1">
          <mxGeometry relative="1" as="geometry">
            <Array as="points" />
            <mxPoint x="672" y="16" as="sourcePoint" />
            <mxPoint x="672" y="1158" as="targetPoint" />
          </mxGeometry>
        </mxCell>
        <mxCell id="22vkG-h5v2N9dKBLQ-ZE-70" style="vsdxID=1369;edgeStyle=none;startArrow=none;endArrow=none;startSize=5;endSize=5;strokeColor=#0F0F0F;spacingTop=0;spacingBottom=0;spacingLeft=0;spacingRight=0;verticalAlign=middle;html=1;labelBackgroundColor=#ffffff;rounded=0;fillOpacity=80;strokeOpacity=20;" parent="22vkG-h5v2N9dKBLQ-ZE-1" edge="1">
          <mxGeometry relative="1" as="geometry">
            <Array as="points" />
            <mxPoint x="656" y="16" as="sourcePoint" />
            <mxPoint x="656" y="1158" as="targetPoint" />
          </mxGeometry>
        </mxCell>
        <mxCell id="22vkG-h5v2N9dKBLQ-ZE-71" style="vsdxID=1370;edgeStyle=none;startArrow=none;endArrow=none;startSize=5;endSize=5;strokeColor=#D8D8D8;spacingTop=0;spacingBottom=0;spacingLeft=0;spacingRight=0;verticalAlign=middle;html=1;labelBackgroundColor=#ffffff;rounded=0;fillOpacity=80;strokeOpacity=20;" parent="22vkG-h5v2N9dKBLQ-ZE-1" edge="1">
          <mxGeometry relative="1" as="geometry">
            <Array as="points" />
            <mxPoint x="720" y="16" as="sourcePoint" />
            <mxPoint x="720" y="1158" as="targetPoint" />
          </mxGeometry>
        </mxCell>
        <mxCell id="22vkG-h5v2N9dKBLQ-ZE-72" style="vsdxID=1398;edgeStyle=none;startArrow=none;endArrow=none;startSize=5;endSize=5;strokeColor=#D8D8D8;spacingTop=0;spacingBottom=0;spacingLeft=0;spacingRight=0;verticalAlign=middle;html=1;labelBackgroundColor=#ffffff;rounded=0;fillOpacity=80;strokeOpacity=20;" parent="22vkG-h5v2N9dKBLQ-ZE-1" edge="1">
          <mxGeometry relative="1" as="geometry">
            <Array as="points" />
            <mxPoint x="800" y="16" as="sourcePoint" />
            <mxPoint x="800" y="1158" as="targetPoint" />
          </mxGeometry>
        </mxCell>
        <mxCell id="22vkG-h5v2N9dKBLQ-ZE-73" style="vsdxID=1309;edgeStyle=none;startArrow=none;endArrow=none;startSize=5;endSize=5;strokeColor=#d8d8d8;spacingTop=0;spacingBottom=0;spacingLeft=0;spacingRight=0;verticalAlign=middle;html=1;labelBackgroundColor=#ffffff;rounded=0;fillOpacity=80;strokeOpacity=20;" parent="22vkG-h5v2N9dKBLQ-ZE-1" edge="1">
          <mxGeometry relative="1" as="geometry">
            <Array as="points" />
            <mxPoint x="16" y="64" as="sourcePoint" />
            <mxPoint x="820" y="64" as="targetPoint" />
          </mxGeometry>
        </mxCell>
        <mxCell id="22vkG-h5v2N9dKBLQ-ZE-74" style="vsdxID=1310;edgeStyle=none;startArrow=none;endArrow=none;startSize=5;endSize=5;strokeColor=#7f7f7f;spacingTop=0;spacingBottom=0;spacingLeft=0;spacingRight=0;verticalAlign=middle;html=1;labelBackgroundColor=#ffffff;rounded=0;fillOpacity=80;strokeOpacity=20;" parent="22vkG-h5v2N9dKBLQ-ZE-1" edge="1">
          <mxGeometry relative="1" as="geometry">
            <Array as="points" />
            <mxPoint x="16" y="96" as="sourcePoint" />
            <mxPoint x="820" y="96" as="targetPoint" />
          </mxGeometry>
        </mxCell>
        <mxCell id="22vkG-h5v2N9dKBLQ-ZE-75" style="vsdxID=1311;edgeStyle=none;startArrow=none;endArrow=none;startSize=5;endSize=5;strokeColor=#d8d8d8;spacingTop=0;spacingBottom=0;spacingLeft=0;spacingRight=0;verticalAlign=middle;html=1;labelBackgroundColor=#ffffff;rounded=0;fillOpacity=80;strokeOpacity=20;" parent="22vkG-h5v2N9dKBLQ-ZE-1" edge="1">
          <mxGeometry relative="1" as="geometry">
            <Array as="points" />
            <mxPoint x="16" y="112" as="sourcePoint" />
            <mxPoint x="820" y="112" as="targetPoint" />
          </mxGeometry>
        </mxCell>
        <mxCell id="22vkG-h5v2N9dKBLQ-ZE-76" style="vsdxID=1312;edgeStyle=none;startArrow=none;endArrow=none;startSize=5;endSize=5;strokeColor=#d8d8d8;spacingTop=0;spacingBottom=0;spacingLeft=0;spacingRight=0;verticalAlign=middle;html=1;labelBackgroundColor=#ffffff;rounded=0;fillOpacity=80;strokeOpacity=20;" parent="22vkG-h5v2N9dKBLQ-ZE-1" edge="1">
          <mxGeometry relative="1" as="geometry">
            <Array as="points" />
            <mxPoint x="16" y="128" as="sourcePoint" />
            <mxPoint x="820" y="128" as="targetPoint" />
          </mxGeometry>
        </mxCell>
        <mxCell id="22vkG-h5v2N9dKBLQ-ZE-77" style="vsdxID=1313;edgeStyle=none;startArrow=none;endArrow=none;startSize=5;endSize=5;strokeColor=#d8d8d8;spacingTop=0;spacingBottom=0;spacingLeft=0;spacingRight=0;verticalAlign=middle;html=1;labelBackgroundColor=#ffffff;rounded=0;fillOpacity=80;strokeOpacity=20;" parent="22vkG-h5v2N9dKBLQ-ZE-1" edge="1">
          <mxGeometry relative="1" as="geometry">
            <Array as="points" />
            <mxPoint x="16" y="144" as="sourcePoint" />
            <mxPoint x="820" y="144" as="targetPoint" />
          </mxGeometry>
        </mxCell>
        <mxCell id="22vkG-h5v2N9dKBLQ-ZE-78" style="vsdxID=1314;edgeStyle=none;startArrow=none;endArrow=none;startSize=5;endSize=5;strokeColor=#d8d8d8;spacingTop=0;spacingBottom=0;spacingLeft=0;spacingRight=0;verticalAlign=middle;html=1;labelBackgroundColor=#ffffff;rounded=0;fillOpacity=80;strokeOpacity=20;" parent="22vkG-h5v2N9dKBLQ-ZE-1" edge="1">
          <mxGeometry relative="1" as="geometry">
            <Array as="points" />
            <mxPoint x="16" y="80" as="sourcePoint" />
            <mxPoint x="820" y="80" as="targetPoint" />
          </mxGeometry>
        </mxCell>
        <mxCell id="22vkG-h5v2N9dKBLQ-ZE-79" style="vsdxID=1315;edgeStyle=none;startArrow=none;endArrow=none;startSize=5;endSize=5;strokeColor=#d8d8d8;spacingTop=0;spacingBottom=0;spacingLeft=0;spacingRight=0;verticalAlign=middle;html=1;labelBackgroundColor=#ffffff;rounded=0;fillOpacity=80;strokeOpacity=20;" parent="22vkG-h5v2N9dKBLQ-ZE-1" edge="1">
          <mxGeometry relative="1" as="geometry">
            <Array as="points" />
            <mxPoint x="16" y="160" as="sourcePoint" />
            <mxPoint x="820" y="160" as="targetPoint" />
          </mxGeometry>
        </mxCell>
        <mxCell id="22vkG-h5v2N9dKBLQ-ZE-80" style="vsdxID=1316;edgeStyle=none;startArrow=none;endArrow=none;startSize=5;endSize=5;strokeColor=#7f7f7f;spacingTop=0;spacingBottom=0;spacingLeft=0;spacingRight=0;verticalAlign=middle;html=1;labelBackgroundColor=#ffffff;rounded=0;fillOpacity=80;strokeOpacity=20;" parent="22vkG-h5v2N9dKBLQ-ZE-1" edge="1">
          <mxGeometry relative="1" as="geometry">
            <Array as="points" />
            <mxPoint x="16" y="176" as="sourcePoint" />
            <mxPoint x="820" y="176" as="targetPoint" />
          </mxGeometry>
        </mxCell>
        <mxCell id="22vkG-h5v2N9dKBLQ-ZE-81" style="vsdxID=1317;edgeStyle=none;startArrow=none;endArrow=none;startSize=5;endSize=5;strokeColor=#d8d8d8;spacingTop=0;spacingBottom=0;spacingLeft=0;spacingRight=0;verticalAlign=middle;html=1;labelBackgroundColor=#ffffff;rounded=0;fillOpacity=80;strokeOpacity=20;" parent="22vkG-h5v2N9dKBLQ-ZE-1" edge="1">
          <mxGeometry relative="1" as="geometry">
            <Array as="points" />
            <mxPoint x="16" y="192" as="sourcePoint" />
            <mxPoint x="820" y="192" as="targetPoint" />
          </mxGeometry>
        </mxCell>
        <mxCell id="22vkG-h5v2N9dKBLQ-ZE-82" style="vsdxID=1318;edgeStyle=none;startArrow=none;endArrow=none;startSize=5;endSize=5;strokeColor=#d8d8d8;spacingTop=0;spacingBottom=0;spacingLeft=0;spacingRight=0;verticalAlign=middle;html=1;labelBackgroundColor=#ffffff;rounded=0;fillOpacity=80;strokeOpacity=20;" parent="22vkG-h5v2N9dKBLQ-ZE-1" edge="1">
          <mxGeometry relative="1" as="geometry">
            <Array as="points" />
            <mxPoint x="16" y="208" as="sourcePoint" />
            <mxPoint x="820" y="208" as="targetPoint" />
          </mxGeometry>
        </mxCell>
        <mxCell id="22vkG-h5v2N9dKBLQ-ZE-83" style="vsdxID=1319;edgeStyle=none;startArrow=none;endArrow=none;startSize=5;endSize=5;strokeColor=#d8d8d8;spacingTop=0;spacingBottom=0;spacingLeft=0;spacingRight=0;verticalAlign=middle;html=1;labelBackgroundColor=#ffffff;rounded=0;fillOpacity=80;strokeOpacity=20;" parent="22vkG-h5v2N9dKBLQ-ZE-1" edge="1">
          <mxGeometry relative="1" as="geometry">
            <Array as="points" />
            <mxPoint x="16" y="240" as="sourcePoint" />
            <mxPoint x="820" y="240" as="targetPoint" />
          </mxGeometry>
        </mxCell>
        <mxCell id="22vkG-h5v2N9dKBLQ-ZE-84" style="vsdxID=1320;edgeStyle=none;startArrow=none;endArrow=none;startSize=5;endSize=5;strokeColor=#7f7f7f;spacingTop=0;spacingBottom=0;spacingLeft=0;spacingRight=0;verticalAlign=middle;html=1;labelBackgroundColor=#ffffff;rounded=0;fillOpacity=80;strokeOpacity=20;" parent="22vkG-h5v2N9dKBLQ-ZE-1" edge="1">
          <mxGeometry relative="1" as="geometry">
            <Array as="points" />
            <mxPoint x="16" y="256" as="sourcePoint" />
            <mxPoint x="820" y="256" as="targetPoint" />
          </mxGeometry>
        </mxCell>
        <mxCell id="22vkG-h5v2N9dKBLQ-ZE-85" style="vsdxID=1321;edgeStyle=none;startArrow=none;endArrow=none;startSize=5;endSize=5;strokeColor=#d8d8d8;spacingTop=0;spacingBottom=0;spacingLeft=0;spacingRight=0;verticalAlign=middle;html=1;labelBackgroundColor=#ffffff;rounded=0;fillOpacity=80;strokeOpacity=20;" parent="22vkG-h5v2N9dKBLQ-ZE-1" edge="1">
          <mxGeometry relative="1" as="geometry">
            <Array as="points" />
            <mxPoint x="16" y="272" as="sourcePoint" />
            <mxPoint x="820" y="272" as="targetPoint" />
          </mxGeometry>
        </mxCell>
        <mxCell id="22vkG-h5v2N9dKBLQ-ZE-86" style="vsdxID=1322;edgeStyle=none;startArrow=none;endArrow=none;startSize=5;endSize=5;strokeColor=#d8d8d8;spacingTop=0;spacingBottom=0;spacingLeft=0;spacingRight=0;verticalAlign=middle;html=1;labelBackgroundColor=#ffffff;rounded=0;fillOpacity=80;strokeOpacity=20;" parent="22vkG-h5v2N9dKBLQ-ZE-1" edge="1">
          <mxGeometry relative="1" as="geometry">
            <Array as="points" />
            <mxPoint x="16" y="288" as="sourcePoint" />
            <mxPoint x="820" y="288" as="targetPoint" />
          </mxGeometry>
        </mxCell>
        <mxCell id="22vkG-h5v2N9dKBLQ-ZE-87" style="vsdxID=1323;edgeStyle=none;startArrow=none;endArrow=none;startSize=5;endSize=5;strokeColor=#d8d8d8;spacingTop=0;spacingBottom=0;spacingLeft=0;spacingRight=0;verticalAlign=middle;html=1;labelBackgroundColor=#ffffff;rounded=0;fillOpacity=80;strokeOpacity=20;" parent="22vkG-h5v2N9dKBLQ-ZE-1" edge="1">
          <mxGeometry relative="1" as="geometry">
            <Array as="points" />
            <mxPoint x="16" y="224" as="sourcePoint" />
            <mxPoint x="820" y="224" as="targetPoint" />
          </mxGeometry>
        </mxCell>
        <mxCell id="22vkG-h5v2N9dKBLQ-ZE-88" style="vsdxID=1324;edgeStyle=none;startArrow=none;endArrow=none;startSize=5;endSize=5;strokeColor=#d8d8d8;spacingTop=0;spacingBottom=0;spacingLeft=0;spacingRight=0;verticalAlign=middle;html=1;labelBackgroundColor=#ffffff;rounded=0;fillOpacity=80;strokeOpacity=20;" parent="22vkG-h5v2N9dKBLQ-ZE-1" edge="1">
          <mxGeometry relative="1" as="geometry">
            <Array as="points" />
            <mxPoint x="16" y="304" as="sourcePoint" />
            <mxPoint x="820" y="303" as="targetPoint" />
          </mxGeometry>
        </mxCell>
        <mxCell id="22vkG-h5v2N9dKBLQ-ZE-89" style="vsdxID=1325;edgeStyle=none;startArrow=none;endArrow=none;startSize=5;endSize=5;strokeColor=#d8d8d8;spacingTop=0;spacingBottom=0;spacingLeft=0;spacingRight=0;verticalAlign=middle;html=1;labelBackgroundColor=#ffffff;rounded=0;fillOpacity=80;strokeOpacity=20;" parent="22vkG-h5v2N9dKBLQ-ZE-1" edge="1">
          <mxGeometry relative="1" as="geometry">
            <Array as="points" />
            <mxPoint x="16" y="320" as="sourcePoint" />
            <mxPoint x="820" y="320" as="targetPoint" />
          </mxGeometry>
        </mxCell>
        <mxCell id="22vkG-h5v2N9dKBLQ-ZE-90" style="vsdxID=1326;edgeStyle=none;startArrow=none;endArrow=none;startSize=5;endSize=5;strokeColor=#7f7f7f;spacingTop=0;spacingBottom=0;spacingLeft=0;spacingRight=0;verticalAlign=middle;html=1;labelBackgroundColor=#ffffff;rounded=0;fillOpacity=80;strokeOpacity=20;" parent="22vkG-h5v2N9dKBLQ-ZE-1" edge="1">
          <mxGeometry relative="1" as="geometry">
            <Array as="points" />
            <mxPoint x="16" y="336" as="sourcePoint" />
            <mxPoint x="820" y="336" as="targetPoint" />
          </mxGeometry>
        </mxCell>
        <mxCell id="22vkG-h5v2N9dKBLQ-ZE-91" style="vsdxID=1327;edgeStyle=none;startArrow=none;endArrow=none;startSize=5;endSize=5;strokeColor=#d8d8d8;spacingTop=0;spacingBottom=0;spacingLeft=0;spacingRight=0;verticalAlign=middle;html=1;labelBackgroundColor=#ffffff;rounded=0;fillOpacity=80;strokeOpacity=20;" parent="22vkG-h5v2N9dKBLQ-ZE-1" edge="1">
          <mxGeometry relative="1" as="geometry">
            <Array as="points" />
            <mxPoint x="16" y="352" as="sourcePoint" />
            <mxPoint x="820" y="352" as="targetPoint" />
          </mxGeometry>
        </mxCell>
        <mxCell id="22vkG-h5v2N9dKBLQ-ZE-92" style="vsdxID=1328;edgeStyle=none;startArrow=none;endArrow=none;startSize=5;endSize=5;strokeColor=#d8d8d8;spacingTop=0;spacingBottom=0;spacingLeft=0;spacingRight=0;verticalAlign=middle;html=1;labelBackgroundColor=#ffffff;rounded=0;fillOpacity=80;strokeOpacity=20;" parent="22vkG-h5v2N9dKBLQ-ZE-1" edge="1">
          <mxGeometry relative="1" as="geometry">
            <Array as="points" />
            <mxPoint x="16" y="384" as="sourcePoint" />
            <mxPoint x="820" y="384" as="targetPoint" />
          </mxGeometry>
        </mxCell>
        <mxCell id="22vkG-h5v2N9dKBLQ-ZE-93" style="vsdxID=1329;edgeStyle=none;startArrow=none;endArrow=none;startSize=5;endSize=5;strokeColor=#d8d8d8;spacingTop=0;spacingBottom=0;spacingLeft=0;spacingRight=0;verticalAlign=middle;html=1;labelBackgroundColor=#ffffff;rounded=0;fillOpacity=80;strokeOpacity=20;" parent="22vkG-h5v2N9dKBLQ-ZE-1" edge="1">
          <mxGeometry relative="1" as="geometry">
            <Array as="points" />
            <mxPoint x="16" y="400" as="sourcePoint" />
            <mxPoint x="820" y="400" as="targetPoint" />
          </mxGeometry>
        </mxCell>
        <mxCell id="22vkG-h5v2N9dKBLQ-ZE-94" style="vsdxID=1330;edgeStyle=none;startArrow=none;endArrow=none;startSize=5;endSize=5;strokeColor=#7f7f7f;spacingTop=0;spacingBottom=0;spacingLeft=0;spacingRight=0;verticalAlign=middle;html=1;labelBackgroundColor=#ffffff;rounded=0;fillOpacity=80;strokeOpacity=20;" parent="22vkG-h5v2N9dKBLQ-ZE-1" edge="1">
          <mxGeometry relative="1" as="geometry">
            <Array as="points" />
            <mxPoint x="16" y="416" as="sourcePoint" />
            <mxPoint x="820" y="416" as="targetPoint" />
          </mxGeometry>
        </mxCell>
        <mxCell id="22vkG-h5v2N9dKBLQ-ZE-95" style="vsdxID=1331;edgeStyle=none;startArrow=none;endArrow=none;startSize=5;endSize=5;strokeColor=#d8d8d8;spacingTop=0;spacingBottom=0;spacingLeft=0;spacingRight=0;verticalAlign=middle;html=1;labelBackgroundColor=#ffffff;rounded=0;fillOpacity=80;strokeOpacity=20;" parent="22vkG-h5v2N9dKBLQ-ZE-1" edge="1">
          <mxGeometry relative="1" as="geometry">
            <Array as="points" />
            <mxPoint x="16" y="432" as="sourcePoint" />
            <mxPoint x="820" y="431" as="targetPoint" />
          </mxGeometry>
        </mxCell>
        <mxCell id="22vkG-h5v2N9dKBLQ-ZE-96" style="vsdxID=1332;edgeStyle=none;startArrow=none;endArrow=none;startSize=5;endSize=5;strokeColor=#d8d8d8;spacingTop=0;spacingBottom=0;spacingLeft=0;spacingRight=0;verticalAlign=middle;html=1;labelBackgroundColor=#ffffff;rounded=0;fillOpacity=80;strokeOpacity=20;" parent="22vkG-h5v2N9dKBLQ-ZE-1" edge="1">
          <mxGeometry relative="1" as="geometry">
            <Array as="points" />
            <mxPoint x="16" y="368" as="sourcePoint" />
            <mxPoint x="820" y="368" as="targetPoint" />
          </mxGeometry>
        </mxCell>
        <mxCell id="22vkG-h5v2N9dKBLQ-ZE-97" style="vsdxID=1333;edgeStyle=none;startArrow=none;endArrow=none;startSize=5;endSize=5;strokeColor=#d8d8d8;spacingTop=0;spacingBottom=0;spacingLeft=0;spacingRight=0;verticalAlign=middle;html=1;labelBackgroundColor=#ffffff;rounded=0;fillOpacity=80;strokeOpacity=20;" parent="22vkG-h5v2N9dKBLQ-ZE-1" edge="1">
          <mxGeometry relative="1" as="geometry">
            <Array as="points" />
            <mxPoint x="16" y="448" as="sourcePoint" />
            <mxPoint x="820" y="448" as="targetPoint" />
          </mxGeometry>
        </mxCell>
        <mxCell id="22vkG-h5v2N9dKBLQ-ZE-98" style="vsdxID=1334;edgeStyle=none;startArrow=none;endArrow=none;startSize=5;endSize=5;strokeColor=#d8d8d8;spacingTop=0;spacingBottom=0;spacingLeft=0;spacingRight=0;verticalAlign=middle;html=1;labelBackgroundColor=#ffffff;rounded=0;fillOpacity=80;strokeOpacity=20;" parent="22vkG-h5v2N9dKBLQ-ZE-1" edge="1">
          <mxGeometry relative="1" as="geometry">
            <Array as="points" />
            <mxPoint x="16" y="464" as="sourcePoint" />
            <mxPoint x="820" y="464" as="targetPoint" />
          </mxGeometry>
        </mxCell>
        <mxCell id="22vkG-h5v2N9dKBLQ-ZE-99" style="vsdxID=1335;edgeStyle=none;startArrow=none;endArrow=none;startSize=5;endSize=5;strokeColor=#d8d8d8;spacingTop=0;spacingBottom=0;spacingLeft=0;spacingRight=0;verticalAlign=middle;html=1;labelBackgroundColor=#ffffff;rounded=0;fillOpacity=80;strokeOpacity=20;" parent="22vkG-h5v2N9dKBLQ-ZE-1" edge="1">
          <mxGeometry relative="1" as="geometry">
            <Array as="points" />
            <mxPoint x="16" y="480" as="sourcePoint" />
            <mxPoint x="820" y="480" as="targetPoint" />
          </mxGeometry>
        </mxCell>
        <mxCell id="22vkG-h5v2N9dKBLQ-ZE-100" style="vsdxID=1336;edgeStyle=none;startArrow=none;endArrow=none;startSize=5;endSize=5;strokeColor=#7f7f7f;spacingTop=0;spacingBottom=0;spacingLeft=0;spacingRight=0;verticalAlign=middle;html=1;labelBackgroundColor=#ffffff;rounded=0;fillOpacity=80;strokeOpacity=20;" parent="22vkG-h5v2N9dKBLQ-ZE-1" edge="1">
          <mxGeometry relative="1" as="geometry">
            <Array as="points" />
            <mxPoint x="16" y="496" as="sourcePoint" />
            <mxPoint x="820" y="496" as="targetPoint" />
          </mxGeometry>
        </mxCell>
        <mxCell id="22vkG-h5v2N9dKBLQ-ZE-101" style="vsdxID=1337;edgeStyle=none;startArrow=none;endArrow=none;startSize=5;endSize=5;strokeColor=#d8d8d8;spacingTop=0;spacingBottom=0;spacingLeft=0;spacingRight=0;verticalAlign=middle;html=1;labelBackgroundColor=#ffffff;rounded=0;fillOpacity=80;strokeOpacity=20;" parent="22vkG-h5v2N9dKBLQ-ZE-1" edge="1">
          <mxGeometry relative="1" as="geometry">
            <Array as="points" />
            <mxPoint x="16" y="528" as="sourcePoint" />
            <mxPoint x="820" y="528" as="targetPoint" />
          </mxGeometry>
        </mxCell>
        <mxCell id="22vkG-h5v2N9dKBLQ-ZE-102" style="vsdxID=1338;edgeStyle=none;startArrow=none;endArrow=none;startSize=5;endSize=5;strokeColor=#d8d8d8;spacingTop=0;spacingBottom=0;spacingLeft=0;spacingRight=0;verticalAlign=middle;html=1;labelBackgroundColor=#ffffff;rounded=0;fillOpacity=80;strokeOpacity=20;" parent="22vkG-h5v2N9dKBLQ-ZE-1" edge="1">
          <mxGeometry relative="1" as="geometry">
            <Array as="points" />
            <mxPoint x="16" y="544" as="sourcePoint" />
            <mxPoint x="820" y="544" as="targetPoint" />
          </mxGeometry>
        </mxCell>
        <mxCell id="22vkG-h5v2N9dKBLQ-ZE-103" style="vsdxID=1339;edgeStyle=none;startArrow=none;endArrow=none;startSize=5;endSize=5;strokeColor=#d8d8d8;spacingTop=0;spacingBottom=0;spacingLeft=0;spacingRight=0;verticalAlign=middle;html=1;labelBackgroundColor=#ffffff;rounded=0;fillOpacity=80;strokeOpacity=20;" parent="22vkG-h5v2N9dKBLQ-ZE-1" edge="1">
          <mxGeometry relative="1" as="geometry">
            <Array as="points" />
            <mxPoint x="16" y="560" as="sourcePoint" />
            <mxPoint x="820" y="560" as="targetPoint" />
          </mxGeometry>
        </mxCell>
        <mxCell id="22vkG-h5v2N9dKBLQ-ZE-104" style="vsdxID=1340;edgeStyle=none;startArrow=none;endArrow=none;startSize=5;endSize=5;strokeColor=#7f7f7f;spacingTop=0;spacingBottom=0;spacingLeft=0;spacingRight=0;verticalAlign=middle;html=1;labelBackgroundColor=#ffffff;rounded=0;fillOpacity=80;strokeOpacity=20;" parent="22vkG-h5v2N9dKBLQ-ZE-1" edge="1">
          <mxGeometry relative="1" as="geometry">
            <Array as="points" />
            <mxPoint x="16" y="576" as="sourcePoint" />
            <mxPoint x="820" y="576" as="targetPoint" />
          </mxGeometry>
        </mxCell>
        <mxCell id="22vkG-h5v2N9dKBLQ-ZE-105" style="vsdxID=1341;edgeStyle=none;startArrow=none;endArrow=none;startSize=5;endSize=5;strokeColor=#d8d8d8;spacingTop=0;spacingBottom=0;spacingLeft=0;spacingRight=0;verticalAlign=middle;html=1;labelBackgroundColor=#ffffff;rounded=0;fillOpacity=80;strokeOpacity=20;" parent="22vkG-h5v2N9dKBLQ-ZE-1" edge="1">
          <mxGeometry relative="1" as="geometry">
            <Array as="points" />
            <mxPoint x="16" y="512" as="sourcePoint" />
            <mxPoint x="820" y="512" as="targetPoint" />
          </mxGeometry>
        </mxCell>
        <mxCell id="22vkG-h5v2N9dKBLQ-ZE-106" style="vsdxID=1342;edgeStyle=none;startArrow=none;endArrow=none;startSize=5;endSize=5;strokeColor=#d8d8d8;spacingTop=0;spacingBottom=0;spacingLeft=0;spacingRight=0;verticalAlign=middle;html=1;labelBackgroundColor=#ffffff;rounded=0;fillOpacity=80;strokeOpacity=20;" parent="22vkG-h5v2N9dKBLQ-ZE-1" edge="1">
          <mxGeometry relative="1" as="geometry">
            <Array as="points" />
            <mxPoint x="16" y="592" as="sourcePoint" />
            <mxPoint x="820" y="592" as="targetPoint" />
          </mxGeometry>
        </mxCell>
        <mxCell id="22vkG-h5v2N9dKBLQ-ZE-107" style="vsdxID=1343;edgeStyle=none;startArrow=none;endArrow=none;startSize=5;endSize=5;strokeColor=#d8d8d8;spacingTop=0;spacingBottom=0;spacingLeft=0;spacingRight=0;verticalAlign=middle;html=1;labelBackgroundColor=#ffffff;rounded=0;fillOpacity=80;strokeOpacity=20;" parent="22vkG-h5v2N9dKBLQ-ZE-1" edge="1">
          <mxGeometry relative="1" as="geometry">
            <Array as="points" />
            <mxPoint x="16" y="608" as="sourcePoint" />
            <mxPoint x="820" y="608" as="targetPoint" />
          </mxGeometry>
        </mxCell>
        <mxCell id="22vkG-h5v2N9dKBLQ-ZE-108" style="vsdxID=1344;edgeStyle=none;startArrow=none;endArrow=none;startSize=5;endSize=5;strokeColor=#d8d8d8;spacingTop=0;spacingBottom=0;spacingLeft=0;spacingRight=0;verticalAlign=middle;html=1;labelBackgroundColor=#ffffff;rounded=0;fillOpacity=80;strokeOpacity=20;" parent="22vkG-h5v2N9dKBLQ-ZE-1" edge="1">
          <mxGeometry relative="1" as="geometry">
            <Array as="points" />
            <mxPoint x="16" y="624" as="sourcePoint" />
            <mxPoint x="820" y="624" as="targetPoint" />
          </mxGeometry>
        </mxCell>
        <mxCell id="22vkG-h5v2N9dKBLQ-ZE-109" style="vsdxID=1345;edgeStyle=none;startArrow=none;endArrow=none;startSize=5;endSize=5;strokeColor=#d8d8d8;spacingTop=0;spacingBottom=0;spacingLeft=0;spacingRight=0;verticalAlign=middle;html=1;labelBackgroundColor=#ffffff;rounded=0;fillOpacity=80;strokeOpacity=20;" parent="22vkG-h5v2N9dKBLQ-ZE-1" edge="1">
          <mxGeometry relative="1" as="geometry">
            <Array as="points" />
            <mxPoint x="16" y="640" as="sourcePoint" />
            <mxPoint x="820" y="640" as="targetPoint" />
          </mxGeometry>
        </mxCell>
        <mxCell id="22vkG-h5v2N9dKBLQ-ZE-110" style="vsdxID=1346;edgeStyle=none;startArrow=none;endArrow=none;startSize=5;endSize=5;strokeColor=#d8d8d8;spacingTop=0;spacingBottom=0;spacingLeft=0;spacingRight=0;verticalAlign=middle;html=1;labelBackgroundColor=#ffffff;rounded=0;fillOpacity=80;strokeOpacity=20;" parent="22vkG-h5v2N9dKBLQ-ZE-1" edge="1">
          <mxGeometry relative="1" as="geometry">
            <Array as="points" />
            <mxPoint x="16" y="672" as="sourcePoint" />
            <mxPoint x="820" y="672" as="targetPoint" />
          </mxGeometry>
        </mxCell>
        <mxCell id="22vkG-h5v2N9dKBLQ-ZE-111" style="vsdxID=1347;edgeStyle=none;startArrow=none;endArrow=none;startSize=5;endSize=5;strokeColor=#d8d8d8;spacingTop=0;spacingBottom=0;spacingLeft=0;spacingRight=0;verticalAlign=middle;html=1;labelBackgroundColor=#ffffff;rounded=0;fillOpacity=80;strokeOpacity=20;" parent="22vkG-h5v2N9dKBLQ-ZE-1" edge="1">
          <mxGeometry relative="1" as="geometry">
            <Array as="points" />
            <mxPoint x="16" y="688" as="sourcePoint" />
            <mxPoint x="820" y="688" as="targetPoint" />
          </mxGeometry>
        </mxCell>
        <mxCell id="22vkG-h5v2N9dKBLQ-ZE-112" style="vsdxID=1348;edgeStyle=none;startArrow=none;endArrow=none;startSize=5;endSize=5;strokeColor=#d8d8d8;spacingTop=0;spacingBottom=0;spacingLeft=0;spacingRight=0;verticalAlign=middle;html=1;labelBackgroundColor=#ffffff;rounded=0;fillOpacity=80;strokeOpacity=20;" parent="22vkG-h5v2N9dKBLQ-ZE-1" edge="1">
          <mxGeometry relative="1" as="geometry">
            <Array as="points" />
            <mxPoint x="16" y="704" as="sourcePoint" />
            <mxPoint x="820" y="704" as="targetPoint" />
          </mxGeometry>
        </mxCell>
        <mxCell id="22vkG-h5v2N9dKBLQ-ZE-113" style="vsdxID=1349;edgeStyle=none;startArrow=none;endArrow=none;startSize=5;endSize=5;strokeColor=#d8d8d8;spacingTop=0;spacingBottom=0;spacingLeft=0;spacingRight=0;verticalAlign=middle;html=1;labelBackgroundColor=#ffffff;rounded=0;fillOpacity=80;strokeOpacity=20;" parent="22vkG-h5v2N9dKBLQ-ZE-1" edge="1">
          <mxGeometry relative="1" as="geometry">
            <Array as="points" />
            <mxPoint x="16" y="720" as="sourcePoint" />
            <mxPoint x="820" y="720" as="targetPoint" />
          </mxGeometry>
        </mxCell>
        <mxCell id="22vkG-h5v2N9dKBLQ-ZE-114" style="vsdxID=1350;edgeStyle=none;startArrow=none;endArrow=none;startSize=5;endSize=5;strokeColor=#7f7f7f;spacingTop=0;spacingBottom=0;spacingLeft=0;spacingRight=0;verticalAlign=middle;html=1;labelBackgroundColor=#ffffff;rounded=0;fillOpacity=80;strokeOpacity=20;" parent="22vkG-h5v2N9dKBLQ-ZE-1" edge="1">
          <mxGeometry relative="1" as="geometry">
            <Array as="points" />
            <mxPoint x="16" y="656" as="sourcePoint" />
            <mxPoint x="820" y="656" as="targetPoint" />
          </mxGeometry>
        </mxCell>
        <mxCell id="22vkG-h5v2N9dKBLQ-ZE-115" style="vsdxID=1351;edgeStyle=none;startArrow=none;endArrow=none;startSize=5;endSize=5;strokeColor=#7f7f7f;spacingTop=0;spacingBottom=0;spacingLeft=0;spacingRight=0;verticalAlign=middle;html=1;labelBackgroundColor=#ffffff;rounded=0;fillOpacity=80;strokeOpacity=20;" parent="22vkG-h5v2N9dKBLQ-ZE-1" edge="1">
          <mxGeometry relative="1" as="geometry">
            <Array as="points" />
            <mxPoint x="16" y="736" as="sourcePoint" />
            <mxPoint x="820" y="735" as="targetPoint" />
          </mxGeometry>
        </mxCell>
        <mxCell id="22vkG-h5v2N9dKBLQ-ZE-116" style="vsdxID=1352;edgeStyle=none;startArrow=none;endArrow=none;startSize=5;endSize=5;strokeColor=#d8d8d8;spacingTop=0;spacingBottom=0;spacingLeft=0;spacingRight=0;verticalAlign=middle;html=1;labelBackgroundColor=#ffffff;rounded=0;fillOpacity=80;strokeOpacity=20;" parent="22vkG-h5v2N9dKBLQ-ZE-1" edge="1">
          <mxGeometry relative="1" as="geometry">
            <Array as="points" />
            <mxPoint x="16" y="752" as="sourcePoint" />
            <mxPoint x="820" y="752" as="targetPoint" />
          </mxGeometry>
        </mxCell>
        <mxCell id="22vkG-h5v2N9dKBLQ-ZE-117" style="vsdxID=1353;edgeStyle=none;startArrow=none;endArrow=none;startSize=5;endSize=5;strokeColor=#d8d8d8;spacingTop=0;spacingBottom=0;spacingLeft=0;spacingRight=0;verticalAlign=middle;html=1;labelBackgroundColor=#ffffff;rounded=0;fillOpacity=80;strokeOpacity=20;" parent="22vkG-h5v2N9dKBLQ-ZE-1" edge="1">
          <mxGeometry relative="1" as="geometry">
            <Array as="points" />
            <mxPoint x="16" y="768" as="sourcePoint" />
            <mxPoint x="820" y="768" as="targetPoint" />
          </mxGeometry>
        </mxCell>
        <mxCell id="22vkG-h5v2N9dKBLQ-ZE-118" style="vsdxID=1354;edgeStyle=none;startArrow=none;endArrow=none;startSize=5;endSize=5;strokeColor=#d8d8d8;spacingTop=0;spacingBottom=0;spacingLeft=0;spacingRight=0;verticalAlign=middle;html=1;labelBackgroundColor=#ffffff;rounded=0;fillOpacity=80;strokeOpacity=20;" parent="22vkG-h5v2N9dKBLQ-ZE-1" edge="1">
          <mxGeometry relative="1" as="geometry">
            <Array as="points" />
            <mxPoint x="16" y="784" as="sourcePoint" />
            <mxPoint x="820" y="784" as="targetPoint" />
          </mxGeometry>
        </mxCell>
        <mxCell id="22vkG-h5v2N9dKBLQ-ZE-119" style="vsdxID=1359;edgeStyle=none;startArrow=none;endArrow=none;startSize=5;endSize=5;strokeColor=#d8d8d8;spacingTop=0;spacingBottom=0;spacingLeft=0;spacingRight=0;verticalAlign=middle;html=1;labelBackgroundColor=#ffffff;rounded=0;fillOpacity=80;strokeOpacity=20;" parent="22vkG-h5v2N9dKBLQ-ZE-1" edge="1">
          <mxGeometry relative="1" as="geometry">
            <Array as="points" />
            <mxPoint x="16" y="800" as="sourcePoint" />
            <mxPoint x="820" y="800" as="targetPoint" />
          </mxGeometry>
        </mxCell>
        <mxCell id="22vkG-h5v2N9dKBLQ-ZE-120" style="vsdxID=1401;edgeStyle=none;startArrow=none;endArrow=none;startSize=5;endSize=5;strokeColor=#d8d8d8;spacingTop=0;spacingBottom=0;spacingLeft=0;spacingRight=0;verticalAlign=middle;html=1;labelBackgroundColor=#ffffff;rounded=0;fillOpacity=80;strokeOpacity=20;" parent="22vkG-h5v2N9dKBLQ-ZE-1" edge="1">
          <mxGeometry relative="1" as="geometry">
            <Array as="points" />
            <mxPoint x="16" y="48" as="sourcePoint" />
            <mxPoint x="820" y="48" as="targetPoint" />
          </mxGeometry>
        </mxCell>
        <mxCell id="22vkG-h5v2N9dKBLQ-ZE-121" style="vsdxID=1400;edgeStyle=none;startArrow=none;endArrow=none;startSize=5;endSize=5;strokeColor=#d8d8d8;spacingTop=0;spacingBottom=0;spacingLeft=0;spacingRight=0;verticalAlign=middle;html=1;labelBackgroundColor=#ffffff;rounded=0;fillOpacity=80;strokeOpacity=20;" parent="22vkG-h5v2N9dKBLQ-ZE-1" edge="1">
          <mxGeometry relative="1" as="geometry">
            <Array as="points" />
            <mxPoint x="16" y="32" as="sourcePoint" />
            <mxPoint x="820" y="32" as="targetPoint" />
          </mxGeometry>
        </mxCell>
        <mxCell id="22vkG-h5v2N9dKBLQ-ZE-122" style="vsdxID=1362;edgeStyle=none;startArrow=none;endArrow=none;startSize=5;endSize=5;strokeColor=#0F0F0F;spacingTop=0;spacingBottom=0;spacingLeft=0;spacingRight=0;verticalAlign=middle;html=1;labelBackgroundColor=#ffffff;rounded=0;fillOpacity=80;strokeOpacity=20;" parent="22vkG-h5v2N9dKBLQ-ZE-1" edge="1">
          <mxGeometry relative="1" as="geometry">
            <Array as="points" />
            <mxPoint x="16" y="16" as="sourcePoint" />
            <mxPoint x="16" y="1159" as="targetPoint" />
          </mxGeometry>
        </mxCell>
        <mxCell id="22vkG-h5v2N9dKBLQ-ZE-123" style="vsdxID=1310;edgeStyle=none;startArrow=none;endArrow=none;startSize=5;endSize=5;strokeColor=#7f7f7f;spacingTop=0;spacingBottom=0;spacingLeft=0;spacingRight=0;verticalAlign=middle;html=1;labelBackgroundColor=#ffffff;rounded=0;fillOpacity=80;strokeOpacity=20;" parent="22vkG-h5v2N9dKBLQ-ZE-1" edge="1">
          <mxGeometry relative="1" as="geometry">
            <Array as="points" />
            <mxPoint x="16" y="16" as="sourcePoint" />
            <mxPoint x="820" y="16" as="targetPoint" />
          </mxGeometry>
        </mxCell>
        <mxCell id="22vkG-h5v2N9dKBLQ-ZE-135" value="Label" style="" parent="22vkG-h5v2N9dKBLQ-ZE-0" visible="0" />
        <mxCell id="22vkG-h5v2N9dKBLQ-ZE-134" value="Option1" style="locked=1;" parent="22vkG-h5v2N9dKBLQ-ZE-0" visible="0" />
        <object label="Symbol" Width="" Height="" UoM="mm" id="22vkG-h5v2N9dKBLQ-ZE-138">
          <mxCell style="" parent="22vkG-h5v2N9dKBLQ-ZE-0" visible="0" />
        </object>
        <mxCell id="22vkG-h5v2N9dKBLQ-ZE-124" value="Connection" style="" parent="22vkG-h5v2N9dKBLQ-ZE-0" visible="0" />
        <mxCell id="22vkG-h5v2N9dKBLQ-ZE-136" value="Origo" style="" parent="22vkG-h5v2N9dKBLQ-ZE-0" visible="0" />
      </root>
    </mxGraphModel>
  </diagram>
</mxfile>
